<svg width="390" height="93" viewBox="0 0 390 93">
<path d="M64.7203 2.18474H64.3204V2.58474V61.1859H61.5071L26.9374 2.38202L26.8214 2.18474H26.5925H1.04163H0.641626V2.58474V89.6236V90.0236H1.04163H19.0464H19.4464V89.6236V31.0225H22.2597L56.8294 89.8263L56.9454 90.0236H57.1742H82.7251H83.1251V89.6236V2.58474V2.18474H82.7251H64.7203ZM176.356 73.4105V73.0105H175.956H124.725V53.3307H163.38H163.78V52.9307V37.0833V36.6833H163.38H124.725V19.1979H174.5H174.9V18.7979V2.58474V2.18474H174.5H104.599H104.199V2.58474V89.6236V90.0236H104.599H175.956H176.356V89.6236V73.4105ZM230.9 28.5158H230.602L230.517 28.8005L218.82 67.6467H216.029L208.129 2.53656L208.086 2.18474H207.732H188.8H188.345L188.403 2.63603L199.656 89.6749L199.702 90.0236H200.053H228.914H229.215L229.298 89.7341L241.792 46.2604H244.631L256.992 89.733L257.075 90.0236H257.377H286.238H286.589L286.635 89.6749L297.888 2.63603L297.946 2.18474H297.491H278.824H278.47L278.427 2.53577L270.395 67.6467H267.735L255.906 28.7993L255.82 28.5158H255.524H230.9ZM386.424 26.8778H386.881L386.82 26.4245C385.745 18.4262 381.798 12.1091 374.998 7.49558C368.296 2.88811 359.738 0.6 349.355 0.6C338.266 0.6 329.475 3.09137 323.028 8.12072C316.585 13.1471 313.342 19.4767 313.342 27.0873C313.342 33.7982 315.392 39.2008 319.519 43.2507C323.637 47.2912 329.783 49.9455 337.906 51.2533L355.906 54.1782C355.907 54.1784 355.908 54.1785 355.909 54.1786C360.115 54.905 363.218 56.0679 365.263 57.6367L365.269 57.6413C367.353 59.1767 368.416 61.483 368.416 64.6334C368.416 67.8929 366.913 70.4524 363.841 72.3381L363.836 72.3408C360.834 74.2366 356.725 75.2047 351.473 75.2047C345.243 75.2047 340.438 74.1632 337.016 72.1222C333.612 70.0916 331.548 67.0548 330.817 62.9781L330.758 62.6487H330.423H310.3H309.853L309.903 63.0931C310.886 71.9007 314.961 78.8706 322.115 83.9759C329.265 89.0778 338.798 91.6083 350.679 91.6083C362.996 91.6083 372.498 88.9981 379.127 83.7194L379.129 83.7175C385.746 78.3658 389.074 71.7129 389.074 63.7801C389.074 56.6629 386.904 50.916 382.535 46.5821C378.176 42.2575 371.666 39.3789 363.058 37.9081L363.056 37.9078L345.449 34.9821L345.449 34.9821C341.55 34.3367 338.677 33.2848 336.787 31.8575C334.916 30.4445 334.001 28.6596 334.001 26.4778C334.001 24.914 334.35 23.5648 335.036 22.4163C335.723 21.2673 336.759 20.2974 338.165 19.5129L338.172 19.5087C341.006 17.848 344.637 17.0036 349.09 17.0036C353.995 17.0036 357.822 17.8212 360.607 19.4191C363.378 21.0086 365.143 23.3842 365.912 26.5716L365.986 26.8778H366.301H386.424Z"  stroke-width="0.8"/>
</svg>
