<svg viewBox="0 0 390 93" xmlns="http://www.w3.org/2000/svg" xmlns:xlink="http://www.w3.org/1999/xlink"><style>:root&gt;svg{display:none}:root&gt;svg:target{display:block}</style><svg viewBox="0 0 390 93" id="logo"><path d="M64.72 2.185h-.4v59h-2.813L26.937 2.383l-.116-.197H.642v87.838h18.804V31.023h2.814l34.57 58.803.115.198h26.18V2.184H64.72zM176.356 73.41v-.4h-51.631V53.33h39.055V36.684h-39.055V19.198H174.9V2.185h-70.701v87.839h72.157V73.41zM230.9 28.517h-.298l-.085.285-11.697 38.846h-2.791l-7.9-65.11-.043-.352h-19.741l.058.451 11.253 87.039.046.349h29.513l.083-.29 12.494-43.474h2.839l12.361 43.473.083.29h29.514l.046-.348 11.253-87.039.058-.451H278.47l-.043.35-8.032 65.112h-2.66L255.906 28.8l-.086-.283H230.9zm155.524-1.638h.457l-.061-.454c-1.075-7.998-5.022-14.315-11.822-18.928C368.296 2.888 359.738.6 349.355.6c-11.089 0-19.88 2.491-26.327 7.52-6.443 5.027-9.686 11.357-9.686 18.967 0 6.711 2.05 12.114 6.177 16.164 4.118 4.04 10.264 6.695 18.387 8.002l18 2.925h.003c4.206.727 7.309 1.89 9.354 3.459l.006.004c2.084 1.536 3.147 3.842 3.147 6.992 0 3.26-1.503 5.82-4.575 7.705l-.005.003c-3.002 1.896-7.111 2.864-12.363 2.864-6.23 0-11.035-1.042-14.457-3.083-3.404-2.03-5.468-5.067-6.199-9.144l-.059-.33h-20.905l.05.445c.983 8.808 5.058 15.778 12.212 20.883 7.15 5.102 16.683 7.632 28.564 7.632 12.317 0 21.819-2.61 28.448-7.889l.002-.001c6.617-5.352 9.945-12.005 9.945-19.938 0-7.117-2.17-12.864-6.539-17.198-4.359-4.325-10.869-7.203-19.477-8.674h-.002l-17.607-2.926c-3.899-.645-6.772-1.697-8.662-3.124-1.871-1.413-2.786-3.198-2.786-5.38 0-1.564.349-2.913 1.035-4.062.687-1.149 1.723-2.119 3.129-2.903l.007-.004c2.834-1.661 6.465-2.505 10.918-2.505 4.905 0 8.732.817 11.517 2.415 2.771 1.59 4.536 3.965 5.305 7.153l.074.306h20.438z"/></svg></svg>